# xmcd
#
# Track frame offsets:
#	150
#	29897
#	50142
#	79292
#	100340
#	132355
#	157232
#	180460
#	199287
#	220292
#	242865
#	261195
#	275247
#	300847
#
# Disc length: 4309 seconds
#
# Revision: 1
# Processed by: cddbd v1.4PL0 Copyright (c) Steve Scherf et al.
# Submitted via: audiograbber 1.80
#
DISCID=dc10d30e
DTITLE=BORING BLUES BAND - LIVE
DYEAR=1900
DGENRE=
TTITLE0=Stagger Lee
TTITLE1=Kumm, kumm, kumm
TTITLE2=Don't think twice
TTITLE3=Easy money
TTITLE4=Mike's Blues
TTITLE5=Blue suede shoes
TTITLE6=Steamroller
TTITLE7=Sunntag (Ballade wider dem Freizeitstreﬂ)
TTITLE8=Lady Madonna
TTITLE9=Nobody loves you
TTITLE10=Instant Blues
TTITLE11=Chantilly lace
TTITLE12=Let the good times roll
TTITLE13=Muddy water Blues
EXTD=
EXTT0=
EXTT1=
EXTT2=
EXTT3=
EXTT4=
EXTT5=
EXTT6=
EXTT7=
EXTT8=
EXTT9=
EXTT10=
EXTT11=
EXTT12=
EXTT13=
PLAYORDER=
